<svg width="24" height="24" viewBox="0 0 24 24" version="1.1" xmlns="http://www.w3.org/2000/svg" xmlns:xlink="http://www.w3.org/1999/xlink">
    <path id="path0_fill" d="M14.32 14.32c-1.9 1.94-2.03 4.37-2.19 9.68 4.95 0 8.38-.02 10.14-1.73C23.98 20.5 24 16.92 24 12.13c-5.31.16-7.74.3-9.68 2.19M0 12.13c0 4.79.02 8.38 1.73 10.14C3.5 23.98 6.93 24 11.87 24c-.16-5.31-.3-7.74-2.19-9.68-1.94-1.9-4.37-2.03-9.68-2.19M11.87 0C6.92 0 3.49.02 1.73 1.73.02 3.5 0 7.08 0 11.87c5.31-.16 7.74-.3 9.68-2.19 1.9-1.94 2.03-4.37 2.19-9.68m2.45 9.68c-1.9-1.94-2.03-4.37-2.19-9.68 4.95 0 8.38.02 10.14 1.73C23.98 3.5 24 7.08 24 11.87c-5.31-.16-7.74-.3-9.68-2.19"/>
</svg>
